<svg xmlns="http://www.w3.org/2000/svg" version="1.1" xmlns:xlink="http://www.w3.org/1999/xlink" width="512" height="512" x="0" y="0" viewBox="0 0 100 100" style="enable-background:new 0 0 512 512" xml:space="preserve" class=""><g><path d="M50 99a4 4 0 0 1-4-4V84a4 4 0 1 1 8 0v11a4 4 0 0 1-4 4zm31.82-13.18A4 4 0 0 1 79 84.65l-7.81-7.81a4 4 0 0 1 5.66-5.66l7.8 7.82a4 4 0 0 1-2.83 6.83zm-63.64 0A4 4 0 0 1 15.35 79l7.81-7.81a4 4 0 1 1 5.66 5.66L21 84.65a4 4 0 0 1-2.82 1.17zM50 74.12a24.14 24.14 0 1 1 17-7.07 23.93 23.93 0 0 1-17 7.07zm0-40.24a16.12 16.12 0 1 0 11.4 4.72A16.05 16.05 0 0 0 50 33.88zM95 54H84a4 4 0 0 1 0-8h11a4 4 0 0 1 0 8zm-79 0H5a4 4 0 0 1 0-8h11a4 4 0 0 1 0 8zm58-24a4 4 0 0 1-2.83-6.83L79 15.35A4 4 0 0 1 84.65 21l-7.81 7.81A4 4 0 0 1 74 30zm-48 0a4 4 0 0 1-2.83-1.17L15.35 21A4 4 0 0 1 21 15.35l7.81 7.81A4 4 0 0 1 26 30zm24-10a4 4 0 0 1-4-4V5a4 4 0 0 1 8 0v11a4 4 0 0 1-4 4z" fill="#f0f0f0" opacity="1" data-original="#000000" class=""></path></g></svg>